<svg width="100" height="31" viewBox="0 0 100 31" fill="none" xmlns="http://www.w3.org/2000/svg">
<path d="M51.6091 8.87978H48.8627V23.5565H51.6091V8.87978Z" fill="white"/>
<path d="M51.6091 3.952H48.8627V7.18426H51.6091V3.952Z" fill="white"/>
<path d="M66.9704 10.5755C65.9934 9.46281 64.0921 8.48378 61.9266 8.48378C56.6193 8.48378 54.0577 12.9077 54.0577 16.1667C54.0577 19.7429 57.0415 23.9287 61.8762 23.9287C64.966 23.9287 66.4185 22.3128 66.92 21.6237H66.9727C66.9727 25.4388 64.728 26.7897 61.8235 26.8164C59.2093 26.8164 58.0741 25.2796 57.6537 24.6968H54.5859C55.8021 27.4788 58.3886 29.3334 61.7952 29.3334C66.7857 29.3334 69.7167 26.3928 69.7167 21.5709V8.88004H66.9704V10.5755ZM61.8479 21.4111C58.9162 21.4111 56.8041 18.8673 56.8041 16.2184C56.8041 13.4365 58.9695 10.9996 61.8739 10.9996C63.5639 10.9996 66.9704 12.1117 66.9704 16.2452C66.9704 18.1259 65.4392 21.4111 61.8479 21.4111Z" fill="white"/>
<path d="M76.2929 8.8797V3.952H73.5466V8.8797H71.5665V11.3967H73.5466V23.5565H76.2929V11.3967H78.6964V8.8797H76.2929Z" fill="white"/>
<path d="M43.3402 10.3987C41.8994 9.15993 40.0641 8.47974 38.1667 8.48127C33.625 8.48127 30.2711 12.1104 30.2711 16.1107C30.2711 19.8212 33.2549 23.925 38.1667 23.925C43.1317 23.925 46.0628 19.7416 46.0628 16.163C46.0628 16.1555 46.0628 16.1479 46.0628 16.1404H46.068V3.9446H43.3402V10.3987ZM38.1667 21.4109C35.1035 21.4109 33.0174 18.841 33.0174 16.1915C33.0174 13.5687 35.0775 10.9994 38.1667 10.9994C41.2558 10.9994 43.3164 13.5688 43.3164 16.1654C43.3164 18.9473 41.1244 21.4109 38.1667 21.4109Z" fill="white"/>
<path d="M13.1555 17.3059C13.8103 17.3059 14.454 17.1351 15.0232 16.8103C15.2937 16.653 15.5183 16.4272 15.6744 16.1554C15.8306 15.8837 15.9127 15.5755 15.9127 15.2618C15.9127 14.9482 15.8306 14.64 15.6744 14.3682C15.5183 14.0965 15.2937 13.8706 15.0232 13.7134L13.0431 12.5699L8.48462 15.1904L11.2726 16.8045C11.8445 17.1349 12.4932 17.3079 13.1531 17.3059H13.1555ZM13.0431 14.374L14.2408 15.0712C14.2738 15.0908 14.3012 15.1185 14.3204 15.1518C14.3395 15.1851 14.3497 15.2229 14.35 15.2613C14.3503 15.2997 14.3407 15.3376 14.322 15.3712C14.3034 15.4048 14.2764 15.433 14.2437 15.453C13.9101 15.6451 13.532 15.7457 13.1474 15.7446C12.7628 15.7436 12.3853 15.641 12.0528 15.4472L11.6172 15.1962L13.0431 14.374Z" fill="white"/>
<path d="M13.0938 0.91629L0.0698853 8.35345V22.8606L13.0666 30.1339L25.3138 22.7845V8.33021L13.0938 0.91629ZM13.0428 28.324L1.63011 21.9437V15.3508L13.0393 8.83745L19.4262 12.7937L17.7165 13.7814C17.5374 13.8856 17.4068 14.0567 17.3531 14.2573C17.2995 14.4579 17.3273 14.6716 17.4304 14.8517C17.5355 15.0298 17.7056 15.1599 17.9048 15.2141C18.1039 15.2684 18.3162 15.2426 18.4967 15.1422L22.4673 12.8367L13.0695 7.01709L1.63011 13.5484V9.26218L13.0695 2.732L23.7536 9.21047V15.7325L13.1517 22.0965L6.1828 18.2565L7.55422 17.4617C7.73363 17.3579 7.86459 17.1868 7.9183 16.9862C7.97201 16.7855 7.94406 16.5717 7.84061 16.3917C7.73716 16.2117 7.56668 16.0803 7.36668 16.0264C7.16667 15.9726 6.95352 16.0006 6.77411 16.1044L3.00154 18.289L13.1824 23.9018L23.7536 17.5581V21.8978L13.0428 28.324Z" fill="white"/>
<path d="M95.5862 21.0785H93.909L89.7351 16.2368L93.909 11.3945H95.5862V13.2887L99.9299 10.1453L95.5862 7.00255V8.89612H92.7704L88.0886 14.327L83.4073 8.89612H80.251V11.3945H82.2687L86.4427 16.2368L82.2687 21.0785H80.251V23.577H83.4073L88.0886 18.1461L92.7704 23.577H95.5862V25.4705L99.9299 22.3277L95.5862 19.1844V21.0785Z" fill="#D9D8D8"/>
</svg>
