<svg width="17" height="14" viewBox="0 0 17 14" fill="none" xmlns="http://www.w3.org/2000/svg">
<path d="M6.00002 0L4.47502 1.5H1.83335C0.916687 1.5 0.166687 2.175 0.166687 3V12C0.166687 12.825 0.916687 13.5 1.83335 13.5H15.1667C16.0834 13.5 16.8334 12.825 16.8334 12V3C16.8334 2.175 16.0834 1.5 15.1667 1.5H12.525L11 0H6.00002ZM8.50002 11.25C6.20002 11.25 4.33335 9.57 4.33335 7.5C4.33335 5.43 6.20002 3.75 8.50002 3.75C10.8 3.75 12.6667 5.43 12.6667 7.5C12.6667 9.57 10.8 11.25 8.50002 11.25Z" fill="#565656"/>
</svg>
