<svg width="19" height="21" viewBox="0 0 19 21" fill="none" xmlns="http://www.w3.org/2000/svg">
<path d="M18.25 14.9999C18.25 15.3799 18.04 15.7099 17.72 15.8799L9.82 20.3199C9.66 20.4399 9.46 20.4999 9.25 20.4999C9.04 20.4999 8.84 20.4399 8.68 20.3199L0.78 15.8799C0.46 15.7099 0.25 15.3799 0.25 14.9999V5.99994C0.25 5.61994 0.46 5.28994 0.78 5.11994L8.68 0.679939C8.84 0.559939 9.04 0.499939 9.25 0.499939C9.46 0.499939 9.66 0.559939 9.82 0.679939L17.72 5.11994C18.04 5.28994 18.25 5.61994 18.25 5.99994V14.9999ZM9.25 2.64994L7.36 3.71994L13.25 7.10994L15.21 5.99994L9.25 2.64994ZM3.29 5.99994L9.25 9.34994L11.21 8.24994L5.33 4.84994L3.29 5.99994ZM2.25 14.4099L8.25 17.7899V11.0799L2.25 7.70994V14.4099ZM16.25 14.4099V7.70994L10.25 11.0799V17.7899L16.25 14.4099Z" fill="#565656"/>
</svg>
