<svg width="20" height="19" viewBox="0 0 20 19" fill="none" xmlns="http://www.w3.org/2000/svg">
<path d="M6.25 0.499939C2.94 0.499939 0.39 3.18994 0.25 6.49994V18.4999H9.25V10.9599C10.35 11.9499 11.75 12.4999 13.25 12.4999C16.56 12.4999 19.25 9.80994 19.25 6.49994C19.25 3.18994 16.56 0.499939 13.25 0.499939H6.25ZM6.25 2.49994H8.79C7.8 3.59994 7.25 4.99994 7.25 6.49994V9.49994H6.25V10.4999H7.25V16.4999H2.25V10.4999H3.25V9.49994H2.25V6.49994C2.25 4.28994 4.04 2.49994 6.25 2.49994ZM13.25 2.49994C15.46 2.49994 17.25 4.28994 17.25 6.49994C17.25 8.70994 15.46 10.4999 13.25 10.4999C11.04 10.4999 9.25 8.70994 9.25 6.49994C9.25 4.28994 11.04 2.49994 13.25 2.49994ZM13.25 4.74994C12.28 4.74994 11.5 5.52994 11.5 6.49994C11.5 7.46994 12.28 8.24994 13.25 8.24994C14.22 8.24994 15 7.46994 15 6.49994C15 5.52994 14.22 4.74994 13.25 4.74994ZM4.25 9.49994V10.4999H5.25V9.49994H4.25Z" fill="#565656"/>
</svg>
