<svg width="21" height="21" viewBox="0 0 21 21" fill="none" xmlns="http://www.w3.org/2000/svg">
<path d="M18.54 13.9099C19.49 11.7399 19.49 9.24994 18.54 7.08994L15.8 8.32994C16.4 9.70994 16.4 11.2799 15.81 12.6699L18.54 13.9099ZM14.17 2.70994C12 1.75994 9.51 1.75994 7.34 2.70994L8.58 5.43994C9.97 4.84994 11.54 4.84994 12.93 5.44994L14.17 2.70994ZM2.96 7.07994C2.01 9.25994 2.01 11.7399 2.96 13.9199L5.7 12.6699C5.1 11.2899 5.1 9.70994 5.7 8.31994L2.96 7.07994ZM7.34 18.2899C9.51 19.2399 12 19.2399 14.17 18.2799L12.93 15.5499C11.55 16.1499 9.97 16.1499 8.59 15.5599L7.34 18.2899ZM10.75 0.499939C12.0632 0.499939 13.3636 0.758597 14.5768 1.26114C15.7901 1.76369 16.8925 2.50029 17.8211 3.42887C18.7497 4.35746 19.4862 5.45985 19.9888 6.6731C20.4913 7.88636 20.75 9.18672 20.75 10.4999C20.75 13.1521 19.6964 15.6956 17.8211 17.571C15.9457 19.4464 13.4022 20.4999 10.75 20.4999C9.43678 20.4999 8.13642 20.2413 6.92317 19.7387C5.70991 19.2362 4.60752 18.4996 3.67893 17.571C1.80357 15.6956 0.75 13.1521 0.75 10.4999C0.75 7.84777 1.80357 5.30423 3.67893 3.42887C5.5543 1.55351 8.09784 0.499939 10.75 0.499939ZM10.75 6.49994C9.68913 6.49994 8.67172 6.92137 7.92157 7.67151C7.17143 8.42166 6.75 9.43907 6.75 10.4999C6.75 11.5608 7.17143 12.5782 7.92157 13.3284C8.67172 14.0785 9.68913 14.4999 10.75 14.4999C11.8109 14.4999 12.8283 14.0785 13.5784 13.3284C14.3286 12.5782 14.75 11.5608 14.75 10.4999C14.75 9.43907 14.3286 8.42166 13.5784 7.67151C12.8283 6.92137 11.8109 6.49994 10.75 6.49994Z" fill="#565656"/>
</svg>
