<svg width="24" height="25" viewBox="0 0 24 25" fill="none" xmlns="http://www.w3.org/2000/svg">
<path d="M18 13.5V20.5H4V6.5H9.02C9.07 5.79 9.24 5.12 9.5 4.5H4C2.9 4.5 2 5.4 2 6.5V20.5C2 21.6 2.9 22.5 4 22.5H18C19.1 22.5 20 21.6 20 20.5V15.5L18 13.5ZM16.5 18.5H5.5L8.25 14.97L10.21 17.33L12.96 13.79L16.5 18.5ZM19.3 9.39C19.74 8.69 20 7.88 20 7C20 4.51 17.99 2.5 15.5 2.5C13.01 2.5 11 4.51 11 7C11 9.49 13.01 11.5 15.49 11.5C16.37 11.5 17.19 11.24 17.88 10.8L21 13.92L22.42 12.5L19.3 9.39ZM15.5 9.5C14.12 9.5 13 8.38 13 7C13 5.62 14.12 4.5 15.5 4.5C16.88 4.5 18 5.62 18 7C18 8.38 16.88 9.5 15.5 9.5Z" fill="black"/>
</svg>
