<svg width="21" height="20" viewBox="0 0 21 20" fill="none" xmlns="http://www.w3.org/2000/svg">
<path d="M10.5 18C6.09 18 2.5 14.41 2.5 10C2.5 5.59 6.09 2 10.5 2C14.91 2 18.5 5.59 18.5 10C18.5 14.41 14.91 18 10.5 18ZM10.5 0C9.18678 0 7.88642 0.258658 6.67317 0.761205C5.45991 1.26375 4.35752 2.00035 3.42893 2.92893C1.55357 4.8043 0.5 7.34784 0.5 10C0.5 12.6522 1.55357 15.1957 3.42893 17.0711C4.35752 17.9997 5.45991 18.7362 6.67317 19.2388C7.88642 19.7413 9.18678 20 10.5 20C13.1522 20 15.6957 18.9464 17.5711 17.0711C19.4464 15.1957 20.5 12.6522 20.5 10C20.5 8.68678 20.2413 7.38642 19.7388 6.17317C19.2362 4.95991 18.4997 3.85752 17.5711 2.92893C16.6425 2.00035 15.5401 1.26375 14.3268 0.761205C13.1136 0.258658 11.8132 0 10.5 0ZM8.5 14.5L14.5 10L8.5 5.5V14.5Z" fill="#7BE77E"/>
</svg>
