<svg width="74" height="85" viewBox="0 0 74 85" fill="none" xmlns="http://www.w3.org/2000/svg">
<path d="M37.25 0L0.679993 21.12V63.34L37.25 84.46L73.82 63.34V21.12L37.25 0ZM37.25 5.84003L68.76 24.04V34.19L37.25 16L5.73999 34.19V24.04L37.25 5.84003ZM5.73999 40.03L37.25 21.84L68.76 40.03V49.83L37.25 31.63L5.73999 49.83V40.03ZM15.49 66.03L37.25 53.47L59 66.03L37.25 78.6L15.49 66.03ZM64.06 63.11L37.25 47.63L10.47 63.13L5.78 60.42V55.67L37.29 37.47L68.8 55.67V60.42L64.06 63.11Z" fill="#565656"/>
</svg>
