<svg width="21" height="20" viewBox="0 0 21 20" fill="none" xmlns="http://www.w3.org/2000/svg">
<path d="M10.25 0C8.93678 0 7.63642 0.258658 6.42317 0.761205C5.20991 1.26375 4.10752 2.00035 3.17893 2.92893C1.30357 4.8043 0.25 7.34784 0.25 10C0.25 12.6522 1.30357 15.1957 3.17893 17.0711C4.10752 17.9997 5.20991 18.7362 6.42317 19.2388C7.63642 19.7413 8.93678 20 10.25 20C12.9022 20 15.4457 18.9464 17.3211 17.0711C19.1964 15.1957 20.25 12.6522 20.25 10C20.25 8.68678 19.9913 7.38642 19.4888 6.17317C18.9862 4.95991 18.2497 3.85752 17.3211 2.92893C16.3925 2.00035 15.2901 1.26375 14.0768 0.761205C12.8636 0.258658 11.5632 0 10.25 0ZM10.25 2C14.66 2 18.25 5.59 18.25 10C18.25 14.41 14.66 18 10.25 18C5.84 18 2.25 14.41 2.25 10C2.25 5.59 5.84 2 10.25 2ZM7.25 7V13H13.25V7" fill="#565656"/>
</svg>
